<?xml version="1.0" encoding="UTF-8" standalone="no"?>
<svg
   xmlns:dc="http://purl.org/dc/elements/1.1/"
   xmlns:cc="http://creativecommons.org/ns#"
   xmlns:rdf="http://www.w3.org/1999/02/22-rdf-syntax-ns#"
   xmlns:svg="http://www.w3.org/2000/svg"
   xmlns="http://www.w3.org/2000/svg"
   xmlns:sodipodi="http://sodipodi.sourceforge.net/DTD/sodipodi-0.dtd"
   xmlns:inkscape="http://www.inkscape.org/namespaces/inkscape"
   width="80.182091mm"
   height="85.512772mm"
   viewBox="0 0 80.182091 85.512772"
   version="1.1"
   id="svg518"
   inkscape:version="1.0.2-2 (e86c870879, 2021-01-15)"
   sodipodi:docname="paper.svg">
  <defs
     id="defs512" />
  <sodipodi:namedview
     id="base"
     pagecolor="#ffffff"
     bordercolor="#666666"
     borderopacity="1.0"
     inkscape:pageopacity="0.0"
     inkscape:pageshadow="2"
     inkscape:zoom="0.35"
     inkscape:cx="25.810926"
     inkscape:cy="547.31322"
     inkscape:document-units="mm"
     inkscape:current-layer="layer1"
     inkscape:document-rotation="0"
     showgrid="false"
     inkscape:window-width="1267"
     inkscape:window-height="1040"
     inkscape:window-x="2050"
     inkscape:window-y="1050"
     inkscape:window-maximized="0" />
  <metadata
     id="metadata515">
    <rdf:RDF>
      <cc:Work
         rdf:about="">
        <dc:format>image/svg+xml</dc:format>
        <dc:type
           rdf:resource="http://purl.org/dc/dcmitype/StillImage" />
        <dc:title></dc:title>
      </cc:Work>
    </rdf:RDF>
  </metadata>
  <g
     inkscape:label="Layer 1"
     inkscape:groupmode="layer"
     id="layer1"
     transform="translate(-99.004193,-3.3567107)">
    <g
       id="g171"
       transform="matrix(0.26458333,0,0,0.26458333,-30.688983,2.7502)">
      <path
         fill="#999999"
         stroke="#999999"
         stroke-width="20.3806"
         stroke-linecap="round"
         stroke-linejoin="round"
         stroke-miterlimit="10"
         d="m 719,235.5 c 0,0 -18.1,-40.3 -20.6,-61.5 -2.5,-21.2 22.6,-49.7 36.7,-86.1 6,-15.4 17.3,-39.1 -5.9,-50.7 -38,-18.8 -64.5,106 -64.5,106 0,0 -1.9,-2.9 -4,-25 -2.1,-22.1 6,-62.8 6,-76.7 0.1,-32.8 -40.4,-35.8 -49.3,-4.5 -5.1,18 -4.6,85 4.3,109.3 0,0 -16.1,-22.1 -24.2,-47.3 -8.1,-25.2 -9.7,-65.6 -38.7,-60.6 0,0 -28.2,9.5 -14.7,42.3 12.9,31.2 30.8,77.7 38,87.5 0,0 -29.1,-26.9 -36.6,-42 -7.5,-15 -19.4,-22.5 -29.7,-17.9 -14.9,6.7 -21.5,33.4 5,59.7 26.5,26.3 34.2,33.4 40.6,38.5"
         id="path167" />
      <path
         fill="#999999"
         stroke="#999999"
         stroke-width="20.3806"
         stroke-linecap="round"
         stroke-linejoin="round"
         stroke-miterlimit="10"
         d="m 667,209.1 c 0,0 12.1,-18.9 34.8,-19.6 0,0 46.3,-70.2 74.4,-41.5 15.8,16.1 0.8,42.5 -7.1,49 -9.5,7.9 -50.4,46.2 -50.4,46.2 0,0 -8.3,21.8 -21.5,32.4 -13.2,10.6 -14,34.1 -14,34.1 l -83.7,5.6 c 0,0 10.8,-27.6 8.7,-34.8 -1.9,-6.3 -51,-45.2 -46.5,-73.8"
         id="path169" />
    </g>
    <g
       id="g177"
       transform="matrix(0.26458333,0,0,0.26458333,-30.688983,2.7502)">
      <path
         fill="#ffffff"
         stroke="#ffffff"
         stroke-width="20.3806"
         stroke-linecap="round"
         stroke-linejoin="round"
         stroke-miterlimit="10"
         d="m 716.6,232.9 c 0,0 -18.1,-40.3 -20.6,-61.5 -2.5,-21.2 22.6,-49.7 36.7,-86.1 6,-15.4 17.3,-39.1 -5.9,-50.7 -38,-18.8 -64.5,106 -64.5,106 0,0 -1.9,-2.9 -4,-25 -2.1,-22.1 6,-62.8 6,-76.7 0,-32.8 -40.5,-35.9 -49.3,-4.6 -5.1,18 -4.6,85 4.3,109.3 0,0 -16.1,-22.1 -24.2,-47.3 -8.1,-25.2 -9.7,-65.6 -38.7,-60.6 0,0 -28.2,9.5 -14.7,42.3 12.9,31.2 30.8,77.7 38,87.5 0,0 -29.1,-26.9 -36.6,-42 -7.5,-15 -19.4,-22.5 -29.7,-17.9 -14.9,6.7 -21.5,33.4 5,59.7 26.5,26.3 34.2,33.4 40.6,38.5"
         id="path173" />
      <path
         fill="#ffffff"
         stroke="#ffffff"
         stroke-width="20.3806"
         stroke-linecap="round"
         stroke-linejoin="round"
         stroke-miterlimit="10"
         d="m 664.5,206.5 c 0,0 12.1,-18.9 34.8,-19.6 0,0 46.3,-70.2 74.4,-41.5 15.8,16.1 0.8,42.5 -7.1,49.1 -9.5,7.9 -50.4,46.2 -50.4,46.2 0,0 -8.3,21.8 -21.5,32.4 -13.2,10.6 -14,34.1 -14,34.1 l -83.7,5.6 c 0,0 10.8,-27.6 8.7,-34.8 -1.9,-6.3 -51,-45.2 -46.5,-73.8"
         id="path175" />
    </g>
    <g
       id="g183"
       transform="matrix(0.26458333,0,0,0.26458333,-30.688983,2.7502)">
      <path
         fill="#fdd9bd"
         stroke="#4d4d4d"
         stroke-width="7.446"
         stroke-linecap="round"
         stroke-linejoin="round"
         stroke-miterlimit="10"
         d="m 716.6,232.9 c 0,0 -18.1,-40.3 -20.6,-61.5 -2.5,-21.2 22.6,-49.7 36.7,-86.1 6,-15.4 17.3,-39.1 -5.9,-50.7 -38,-18.8 -64.5,106 -64.5,106 0,0 -1.9,-2.9 -4,-25 -2.1,-22.1 6,-62.8 6,-76.7 0,-32.8 -40.5,-35.9 -49.3,-4.6 -5.1,18 -4.6,85 4.3,109.3 0,0 -16.1,-22.1 -24.2,-47.3 -8.1,-25.2 -9.7,-65.6 -38.7,-60.6 0,0 -28.2,9.5 -14.7,42.3 12.9,31.2 30.8,77.7 38,87.5 0,0 -29.1,-26.9 -36.6,-42 -7.5,-15 -19.4,-22.5 -29.7,-17.9 -14.9,6.7 -21.5,33.4 5,59.7 26.5,26.3 34.2,33.4 40.6,38.5"
         id="path179" />
      <path
         fill="#fdd9bd"
         stroke="#4d4d4d"
         stroke-width="7.446"
         stroke-linecap="round"
         stroke-linejoin="round"
         stroke-miterlimit="10"
         d="m 664.5,206.5 c 0,0 12.1,-18.9 34.8,-19.6 0,0 46.3,-70.2 74.4,-41.5 15.8,16.1 0.8,42.5 -7.1,49.1 -9.5,7.9 -50.4,46.2 -50.4,46.2 0,0 -8.3,21.8 -21.5,32.4 -13.2,10.6 -14,34.1 -14,34.1 l -83.7,5.6 c 0,0 10.8,-27.6 8.7,-34.8 -1.9,-6.3 -51,-45.2 -46.5,-73.8"
         id="path181" />
    </g>
  </g>
</svg>
