<?xml version="1.0" encoding="UTF-8" standalone="no"?>
<svg
   xmlns:dc="http://purl.org/dc/elements/1.1/"
   xmlns:cc="http://creativecommons.org/ns#"
   xmlns:rdf="http://www.w3.org/1999/02/22-rdf-syntax-ns#"
   xmlns:svg="http://www.w3.org/2000/svg"
   xmlns="http://www.w3.org/2000/svg"
   width="61.539448mm"
   height="67.214447mm"
   viewBox="0 0 61.539448 67.214447"
   version="1.1"
   id="svg308">
  <defs
     id="defs302" />
  <metadata
     id="metadata305">
    <rdf:RDF>
      <cc:Work
         rdf:about="">
        <dc:format>image/svg+xml</dc:format>
        <dc:type
           rdf:resource="http://purl.org/dc/dcmitype/StillImage" />
        <dc:title></dc:title>
      </cc:Work>
    </rdf:RDF>
  </metadata>
  <g
     id="layer1"
     transform="translate(-0.98027469,-0.41063405)">
    <g
       id="g199"
       transform="matrix(0.26458333,0,0,0.26458333,0.96090286,-11.853131)">
      <path
         fill="#999999"
         stroke="#999999"
         stroke-width="20.3806"
         stroke-linecap="round"
         stroke-linejoin="round"
         stroke-miterlimit="10"
         d="m 132.3,60.8 c 0,0 31.1,-10.6 33.7,30.5 2,32.2 14.6,65.2 -6.1,68.7 -20.8,3.5 -62.5,-76.5 -27.6,-99.2 z"
         id="path185" />
      <path
         fill="#999999"
         stroke="#999999"
         stroke-width="20.3806"
         stroke-linecap="round"
         stroke-linejoin="round"
         stroke-miterlimit="10"
         d="M 181.8,168.7"
         id="path187" />
      <path
         fill="#999999"
         stroke="#999999"
         stroke-width="20.3806"
         stroke-linecap="round"
         stroke-linejoin="round"
         stroke-miterlimit="10"
         d="m 187.4,165.5 c -31,4.4 -61,5.3 -56.6,-24.8 4.4,-30.1 68.1,-33.6 87.5,1.8 19.5,35.4 -34.5,68.1 -34.5,68.1 0,0 -0.9,17.7 -13.3,29.2 -12.4,11.5 -7.1,38.9 -7.1,38.9 l -83.1,11.5 c 0,0 8.8,-28.3 6.2,-35.4 -2.6,-7.1 -69.9,-52.2 -46.9,-82.2 23,-30.1 30.9,-39.8 62.8,-52.2"
         id="path189" />
      <path
         fill="#999999"
         stroke="#999999"
         stroke-width="20.3806"
         stroke-linecap="round"
         stroke-linejoin="round"
         stroke-miterlimit="10"
         d="m 83.6,75 c 0,0 30.1,-13.3 36.3,27.4 4.9,31.9 20.3,63.7 0,69 -20.4,5.3 -69,-70.7 -36.3,-96.4 z"
         id="path191" />
      <path
         fill="#999999"
         stroke="#999999"
         stroke-width="20.3806"
         stroke-linecap="round"
         stroke-linejoin="round"
         stroke-miterlimit="10"
         d="m 38.9,100.4 c 0,0 20.9,-20.4 39,18.2 13,27.6 31.4,54.9 13.6,63.8 -17.8,9 -77.8,-51.8 -52.6,-82 z"
         id="path193" />
      <path
         fill="#999999"
         stroke="#999999"
         stroke-width="20.3806"
         stroke-linecap="round"
         stroke-linejoin="round"
         stroke-miterlimit="10"
         d="m 18.2,138.9 c 0,0 21.9,-8 30.8,14.4 8.8,22.5 24.8,43.4 10.7,50.4 -14,7 -61.4,-41 -41.5,-64.8 z"
         id="path195" />
      <path
         fill="#999999"
         stroke="#999999"
         stroke-width="20.3806"
         stroke-linecap="round"
         stroke-linejoin="round"
         stroke-miterlimit="10"
         d="m 145,189.4 c 0,0 4.4,-18.6 22.1,-21.2"
         id="path197" />
    </g>
    <g
       id="g215"
       transform="matrix(0.26458333,0,0,0.26458333,0.96090286,-11.853131)">
      <path
         fill="#ffffff"
         stroke="#ffffff"
         stroke-width="20.3806"
         stroke-linecap="round"
         stroke-linejoin="round"
         stroke-miterlimit="10"
         d="m 129.1,57.8 c 0,0 31.1,-10.6 33.7,30.5 2,32.2 14.6,65.2 -6.1,68.7 C 136,160.5 94.2,80.5 129.1,57.8 Z"
         id="path201" />
      <path
         fill="#ffffff"
         stroke="#ffffff"
         stroke-width="20.3806"
         stroke-linecap="round"
         stroke-linejoin="round"
         stroke-miterlimit="10"
         d="M 178.6,165.7"
         id="path203" />
      <path
         fill="#ffffff"
         stroke="#ffffff"
         stroke-width="20.3806"
         stroke-linecap="round"
         stroke-linejoin="round"
         stroke-miterlimit="10"
         d="m 184.2,162.5 c -31,4.4 -61,5.3 -56.6,-24.8 4.4,-30.1 68.1,-33.6 87.5,1.8 19.5,35.4 -34.5,68.1 -34.5,68.1 0,0 -0.9,17.7 -13.3,29.2 -12.4,11.5 -7.1,38.9 -7.1,38.9 l -83.1,11.5 c 0,0 8.8,-28.3 6.2,-35.4 -2.7,-7.1 -69.9,-52.2 -46.9,-82.2 23,-30.1 30.9,-39.8 62.8,-52.2"
         id="path205" />
      <path
         fill="#ffffff"
         stroke="#ffffff"
         stroke-width="20.3806"
         stroke-linecap="round"
         stroke-linejoin="round"
         stroke-miterlimit="10"
         d="m 80.4,72 c 0,0 30.1,-13.3 36.3,27.4 4.9,31.9 20.3,63.7 0,69 C 96.4,173.7 47.7,97.7 80.4,72 Z"
         id="path207" />
      <path
         fill="#ffffff"
         stroke="#ffffff"
         stroke-width="20.3806"
         stroke-linecap="round"
         stroke-linejoin="round"
         stroke-miterlimit="10"
         d="m 35.8,97.4 c 0,0 20.9,-20.4 39,18.2 13,27.7 31.4,54.9 13.6,63.8 -17.9,9 -77.9,-51.8 -52.6,-82 z"
         id="path209" />
      <path
         fill="#ffffff"
         stroke="#ffffff"
         stroke-width="20.3806"
         stroke-linecap="round"
         stroke-linejoin="round"
         stroke-miterlimit="10"
         d="m 15,135.9 c 0,0 21.9,-8.1 30.8,14.4 8.8,22.5 24.8,43.4 10.7,50.4 -14,7.1 -61.4,-41 -41.5,-64.8 z"
         id="path211" />
      <path
         fill="#ffffff"
         stroke="#ffffff"
         stroke-width="20.3806"
         stroke-linecap="round"
         stroke-linejoin="round"
         stroke-miterlimit="10"
         d="m 141.8,186.4 c 0,0 4.4,-18.6 22.1,-21.2"
         id="path213" />
    </g>
    <path
       fill="#fdd9bd"
       stroke="#4d4d4d"
       stroke-width="1.97009"
       stroke-linecap="round"
       stroke-linejoin="round"
       stroke-miterlimit="10"
       d="m 35.118613,3.4397863 c 0,0 8.22854,-2.80458401 8.91646,8.0697907 0.52916,8.519583 3.86291,17.250833 -1.61396,18.176875 -5.47688,0.926042 -16.53646,-20.2406247 -7.3025,-26.2466657 z"
       id="path217" />
    <path
       fill="#fdd9bd"
       stroke="#4d4d4d"
       stroke-width="1.97009"
       stroke-linecap="round"
       stroke-linejoin="round"
       stroke-miterlimit="10"
       d="M 48.215483,31.988327"
       id="path219" />
    <path
       fill="#fdd9bd"
       stroke="#4d4d4d"
       stroke-width="1.97009"
       stroke-linecap="round"
       stroke-linejoin="round"
       stroke-miterlimit="10"
       d="m 49.697153,31.14166 c -8.20208,1.164167 -16.13958,1.402292 -14.97542,-6.561666 1.16417,-7.963959 18.01813,-8.89 23.15104,0.47625 5.15938,9.36625 -9.12812,18.018124 -9.12812,18.018124 0,0 -0.23813,4.683125 -3.51896,7.725834 -3.28083,3.042708 -1.87854,10.292291 -1.87854,10.292291 l -21.98688,3.042709 c 0,0 2.32834,-7.487709 1.64042,-9.36625 -0.71437,-1.878542 -18.4943701,-13.81125 -12.40896,-21.74875 6.08542,-7.963958 8.17563,-10.530417 16.61584,-13.81125"
       id="path221" />
    <path
       fill="#fdd9bd"
       stroke="#4d4d4d"
       stroke-width="1.97009"
       stroke-linecap="round"
       stroke-linejoin="round"
       stroke-miterlimit="10"
       d="m 22.233403,7.1968693 c 0,0 7.96396,-3.518958 9.60437,7.2495827 1.29646,8.440208 5.37105,16.853958 0,18.25625 -5.37104,1.402292 -18.25625,-18.706041 -9.60437,-25.5058327 z"
       id="path223" />
    <path
       fill="#fdd9bd"
       stroke="#4d4d4d"
       stroke-width="1.97009"
       stroke-linecap="round"
       stroke-linejoin="round"
       stroke-miterlimit="10"
       d="m 10.432983,13.917286 c 0,0 5.52979,-5.3974997 10.31875,4.815416 3.43959,7.328958 8.30792,14.525625 3.59834,16.880417 -4.73605,2.38125 -20.6110501,-13.705417 -13.91709,-21.695833 z"
       id="path225" />
    <path
       fill="#fdd9bd"
       stroke="#4d4d4d"
       stroke-width="1.97009"
       stroke-linecap="round"
       stroke-linejoin="round"
       stroke-miterlimit="10"
       d="m 4.9296529,24.103744 c 0,0 5.7943701,-2.143125 8.1491701,3.81 2.32833,5.953125 6.56166,11.482916 2.83104,13.335 -3.70417,1.878541 -16.24542014,-10.847917 -10.9802101,-17.145 z"
       id="path227" />
    <path
       fill="#fdd9bd"
       stroke="#4d4d4d"
       stroke-width="1.97009"
       stroke-linecap="round"
       stroke-linejoin="round"
       stroke-miterlimit="10"
       d="m 38.478823,37.465202 c 0,0 1.16416,-4.92125 5.84729,-5.609167"
       id="path229" />
  </g>
</svg>
