<?xml version="1.0" encoding="UTF-8" standalone="no"?>
<svg
   xmlns:dc="http://purl.org/dc/elements/1.1/"
   xmlns:cc="http://creativecommons.org/ns#"
   xmlns:rdf="http://www.w3.org/1999/02/22-rdf-syntax-ns#"
   xmlns:svg="http://www.w3.org/2000/svg"
   xmlns="http://www.w3.org/2000/svg"
   width="58.253712mm"
   height="89.024307mm"
   viewBox="0 0 58.253712 89.024307"
   version="1.1"
   id="svg422">
  <defs
     id="defs416" />
  <metadata
     id="metadata419">
    <rdf:RDF>
      <cc:Work
         rdf:about="">
        <dc:format>image/svg+xml</dc:format>
        <dc:type
           rdf:resource="http://purl.org/dc/dcmitype/StillImage" />
        <dc:title></dc:title>
      </cc:Work>
    </rdf:RDF>
  </metadata>
  <g
     id="layer1"
     transform="translate(-183.29577,-64.344989)">
    <path
       fill="#999999"
       stroke="#999999"
       stroke-width="4.87053"
       stroke-linecap="round"
       stroke-linejoin="round"
       stroke-miterlimit="10"
       d="m 225.83744,125.61346 c 0,0 0.29104,-2.61938 -1.48167,-9.36625 -1.77271,-6.74688 1.42875,-20.716877 6.985,-32.199794 C 236.87056,72.5645 226.76348,70.130333 226.76348,70.130333 211.1266,65.182625 212.10556,107.807 212.10556,107.807 c 0,0 -0.74083,-0.84667 -2.43416,-7.884584 -1.66688,-7.037917 -0.89959,-20.584583 -1.50813,-25.0825 -1.45521,-10.609791 -14.68437,-9.763125 -16.13958,0.740834 -0.82021,6.058958 2.32833,27.67542 6.32354,35.13667 5.45042,10.18645 -3.4925,1.19062 1.53458,9.02229 5.02709,7.80521 25.95563,5.87375 25.95563,5.87375 z"
       id="path125" />
    <path
       fill="#b3b3b3"
       stroke="#b3b3b3"
       stroke-width="4.87053"
       stroke-linecap="round"
       stroke-linejoin="round"
       stroke-miterlimit="10"
       d="M 228.35098,118.78721"
       id="path127" />
    <path
       fill="#b3b3b3"
       stroke="#b3b3b3"
       stroke-width="4.87053"
       stroke-linecap="round"
       stroke-linejoin="round"
       stroke-miterlimit="10"
       d="M 228.35098,118.78721"
       id="path129" />
    <path
       fill="#b3b3b3"
       stroke="#b3b3b3"
       stroke-width="4.87053"
       stroke-linecap="round"
       stroke-linejoin="round"
       stroke-miterlimit="10"
       d="m 229.83265,117.94054 c -8.20209,1.16417 -16.13959,1.40229 -14.97542,-6.56167 1.16417,-7.96395 18.01812,-8.89 23.15104,0.47625 5.15938,9.36625 -9.12812,18.01813 -9.12812,18.01813 0,0 -0.23813,4.68312 -3.51896,7.72583 -3.28084,3.04271 -1.87854,10.29229 -1.87854,10.29229 l -21.98688,3.04271 c 0,0 2.32833,-7.48771 1.64042,-9.36625 -0.71438,-1.87854 -18.49438,-13.81125 -12.40896,-21.74875 6.08542,-7.96396 2.16958,-8.06979 10.60979,-11.32416"
       id="path131" />
    <path
       fill="#b3b3b3"
       stroke="#b3b3b3"
       stroke-width="4.87053"
       stroke-linecap="round"
       stroke-linejoin="round"
       stroke-miterlimit="10"
       d="m 191.15056,106.74867 c 0,0 3.70417,-6.773337 11.27125,1.61395 5.42396,6.00605 12.17084,11.48292 8.36084,15.10771 -3.81,3.62479 -23.68021,-7.14375 -19.63209,-16.72166 z"
       id="path133" />
    <path
       fill="#b3b3b3"
       stroke="#b3b3b3"
       stroke-width="4.87053"
       stroke-linecap="round"
       stroke-linejoin="round"
       stroke-miterlimit="10"
       d="m 187.47285,116.697 c 2.19605,-3.04271 5.58271,-1.82563 8.89,1.27 4.68313,4.33917 9.63084,9.07521 6.61459,11.93271 -3.01625,2.8575 -21.61646,-4.73604 -15.50459,-13.20271 z"
       id="path135" />
    <path
       fill="#b3b3b3"
       stroke="#b3b3b3"
       stroke-width="4.87053"
       stroke-linecap="round"
       stroke-linejoin="round"
       stroke-miterlimit="10"
       d="m 218.58785,124.26408 c 0,0 1.16417,-4.92125 5.8473,-5.60916"
       id="path137" />
    <path
       fill="#ffffff"
       stroke="#ffffff"
       stroke-width="4.87053"
       stroke-linecap="round"
       stroke-linejoin="round"
       stroke-miterlimit="10"
       d="m 225.25535,125.11075 c 0,0 0.29105,-2.61938 -1.48166,-9.36625 -1.77271,-6.74688 1.42875,-20.716876 6.985,-32.199792 5.50333,-11.482917 -4.60375,-13.917083 -4.60375,-13.917083 -15.63688,-4.947709 -14.68438,37.676665 -14.68438,37.676665 0,0 -0.74083,-0.84667 -2.43416,-7.884582 -1.66688,-7.037917 -0.89959,-20.584584 -1.50813,-25.0825 -1.45521,-10.609792 -14.68437,-9.763125 -16.13958,0.740833 -0.82021,6.058958 2.32833,27.675419 6.32354,35.136669 5.45042,10.18646 -3.4925,1.19062 1.53458,9.02229 5.05354,7.80521 26.00854,5.87375 26.00854,5.87375 z"
       id="path139" />
    <path
       fill="#ffffff"
       stroke="#ffffff"
       stroke-width="4.87053"
       stroke-linecap="round"
       stroke-linejoin="round"
       stroke-miterlimit="10"
       d="M 227.74244,118.2845"
       id="path141" />
    <path
       fill="#ffffff"
       stroke="#ffffff"
       stroke-width="4.87053"
       stroke-linecap="round"
       stroke-linejoin="round"
       stroke-miterlimit="10"
       d="M 227.74244,118.2845"
       id="path143" />
    <path
       fill="#ffffff"
       stroke="#ffffff"
       stroke-width="4.87053"
       stroke-linecap="round"
       stroke-linejoin="round"
       stroke-miterlimit="10"
       d="m 229.2241,117.43783 c -8.20208,1.16417 -16.13958,1.40229 -14.97541,-6.56166 1.16416,-7.96396 18.01812,-8.89 23.15104,0.47625 5.15937,9.36625 -9.12813,18.01812 -9.12813,18.01812 0,0 -0.23812,4.68313 -3.51895,7.72583 -3.28084,3.04271 -1.87855,10.2923 -1.87855,10.2923 l -21.98687,3.0427 c 0,0 2.32833,-7.4877 1.64042,-9.36625 -0.71438,-1.87854 -18.49438,-13.81125 -12.40896,-21.74875 6.08541,-7.96395 2.16958,-8.06979 10.60979,-11.32416"
       id="path145" />
    <path
       fill="#ffffff"
       stroke="#ffffff"
       stroke-width="4.87053"
       stroke-linecap="round"
       stroke-linejoin="round"
       stroke-miterlimit="10"
       d="m 190.56848,106.24596 c 0,0 3.70417,-6.773336 11.27125,1.61396 5.42396,6.00604 12.17083,11.48291 8.36083,15.1077 -3.81,3.6248 -23.68021,-7.11729 -19.63208,-16.72166 z"
       id="path147" />
    <path
       fill="#ffffff"
       stroke="#ffffff"
       stroke-width="4.87053"
       stroke-linecap="round"
       stroke-linejoin="round"
       stroke-miterlimit="10"
       d="m 186.89077,116.19429 c 2.19604,-3.04271 5.58271,-1.82562 8.89,1.27 4.68313,4.33917 9.63083,9.07521 6.61458,11.93271 -3.01625,2.88396 -21.61645,-4.73604 -15.50458,-13.20271 z"
       id="path149" />
    <path
       fill="#ffffff"
       stroke="#ffffff"
       stroke-width="4.87053"
       stroke-linecap="round"
       stroke-linejoin="round"
       stroke-miterlimit="10"
       d="m 218.00577,123.76137 c 0,0 1.16417,-4.92125 5.84729,-5.60916"
       id="path151" />
    <path
       fill="#fdd9bd"
       stroke="#4d4d4d"
       stroke-width="1.97009"
       stroke-linecap="round"
       stroke-linejoin="round"
       stroke-miterlimit="10"
       d="m 225.25535,125.11075 c 0,0 0.29105,-2.61938 -1.48166,-9.36625 -1.77271,-6.74688 1.42875,-20.716876 6.985,-32.199792 5.50333,-11.482917 -4.60375,-13.917083 -4.60375,-13.917083 -15.63688,-4.947709 -14.68438,37.676665 -14.68438,37.676665 0,0 -0.74083,-0.84667 -2.43416,-7.884582 -1.66688,-7.037917 -0.89959,-20.584584 -1.50813,-25.0825 -1.45521,-10.609792 -14.68437,-9.763125 -16.13958,0.740833 -0.82021,6.058958 2.32833,27.675419 6.32354,35.136669 5.45042,10.18646 -3.4925,1.19062 1.53458,9.02229 5.05354,7.80521 26.00854,5.87375 26.00854,5.87375 z"
       id="path153" />
    <path
       fill="#fdd9bd"
       stroke="#4d4d4d"
       stroke-width="1.97009"
       stroke-linecap="round"
       stroke-linejoin="round"
       stroke-miterlimit="10"
       d="M 227.74244,118.2845"
       id="path155" />
    <path
       fill="#fdd9bd"
       stroke="#4d4d4d"
       stroke-width="1.97009"
       stroke-linecap="round"
       stroke-linejoin="round"
       stroke-miterlimit="10"
       d="M 227.74244,118.2845"
       id="path157" />
    <path
       fill="#fdd9bd"
       stroke="#4d4d4d"
       stroke-width="1.97009"
       stroke-linecap="round"
       stroke-linejoin="round"
       stroke-miterlimit="10"
       d="m 229.2241,117.43783 c -8.20208,1.16417 -16.13958,1.40229 -14.97541,-6.56166 1.16416,-7.96396 18.01812,-8.89 23.15104,0.47625 5.15937,9.36625 -9.12813,18.01812 -9.12813,18.01812 0,0 -0.23812,4.68313 -3.51895,7.72583 -3.28084,3.04271 -1.87855,10.2923 -1.87855,10.2923 l -21.98687,3.0427 c 0,0 2.32833,-7.4877 1.64042,-9.36625 -0.71438,-1.87854 -18.49438,-13.81125 -12.40896,-21.74875 6.08541,-7.96395 2.16958,-8.06979 10.60979,-11.32416"
       id="path159" />
    <path
       fill="#fdd9bd"
       stroke="#4d4d4d"
       stroke-width="1.97009"
       stroke-linecap="round"
       stroke-linejoin="round"
       stroke-miterlimit="10"
       d="m 190.56848,106.24596 c 0,0 3.70417,-6.773336 11.27125,1.61396 5.42396,6.00604 12.17083,11.48291 8.36083,15.1077 -3.81,3.6248 -23.68021,-7.11729 -19.63208,-16.72166 z"
       id="path161" />
    <path
       fill="#fdd9bd"
       stroke="#4d4d4d"
       stroke-width="1.97009"
       stroke-linecap="round"
       stroke-linejoin="round"
       stroke-miterlimit="10"
       d="m 186.89077,116.19429 c 2.19604,-3.04271 5.58271,-1.82562 8.89,1.27 4.68313,4.33917 9.63083,9.07521 6.61458,11.93271 -3.01625,2.88396 -21.61645,-4.73604 -15.50458,-13.20271 z"
       id="path163" />
    <path
       fill="#fdd9bd"
       stroke="#4d4d4d"
       stroke-width="1.97009"
       stroke-linecap="round"
       stroke-linejoin="round"
       stroke-miterlimit="10"
       d="m 218.00577,123.76137 c 0,0 1.16417,-4.92125 5.84729,-5.60916"
       id="path165" />
  </g>
</svg>
